<?xml version="1.0" encoding="UTF-8"?>
<svg version="1.1" xmlns="http://www.w3.org/2000/svg" width="150" height="165">
<path d="M0 0 C0.84949219 0.78246094 1.69898437 1.56492187 2.57421875 2.37109375 C2.57421875 4.37109375 2.57421875 4.37109375 0.88671875 6.12109375 C0.12359375 6.53359375 -0.63953125 6.94609375 -1.42578125 7.37109375 C-4.93256711 6.26764054 -7.75681377 4.58256511 -10.80078125 2.55859375 C-19.24972032 -2.6018361 -29.50394297 -6.124406 -39.42578125 -6.62890625 C-40.1425 -6.67917969 -40.85921875 -6.72945312 -41.59765625 -6.78125 C-58.63857991 -7.47736616 -75.32210589 -0.94715643 -88.18359375 10.1171875 C-95.44525789 17.41680459 -100.9168759 25.69752331 -104.42578125 35.37109375 C-104.74417969 36.24636719 -105.06257813 37.12164062 -105.390625 38.0234375 C-110.73300397 55.5769684 -107.80846694 74.06983918 -99.4453125 90.0390625 C-93.82514893 99.31178885 -85.07835172 108.24316569 -75.42578125 113.37109375 C-75.50828125 112.07171875 -75.59078125 110.77234375 -75.67578125 109.43359375 C-75.66253899 100.98503186 -70.97056629 94.20689748 -66.42578125 87.37109375 C-68.09640625 86.90703125 -68.09640625 86.90703125 -69.80078125 86.43359375 C-80.74071342 82.28997342 -87.76086655 71.84577638 -93.30078125 62.05859375 C-95.51955062 56.75820027 -95.52185081 52.03919771 -95.42578125 46.37109375 C-96.08578125 46.04109375 -96.74578125 45.71109375 -97.42578125 45.37109375 C-96.97539354 40.52942589 -95.82605964 37.87441088 -92.42578125 34.37109375 C-91.76578125 34.37109375 -91.10578125 34.37109375 -90.42578125 34.37109375 C-90.38453125 33.56671875 -90.34328125 32.76234375 -90.30078125 31.93359375 C-88.72930792 25.53545233 -85.18304674 20.19366956 -79.67578125 16.49609375 C-69.58992836 11.00680659 -58.57709148 9.6593186 -47.30078125 12.02734375 C-41.2092131 13.99018238 -35.11754032 16.95289441 -31.42578125 22.37109375 C-31.057308 25.46518532 -31.56487766 27.30412471 -32.42578125 30.37109375 C-34.07578125 30.70109375 -35.72578125 31.03109375 -37.42578125 31.37109375 C-37.17024071 32.83218438 -36.89577753 34.28997471 -36.61328125 35.74609375 C-36.46246094 36.55820313 -36.31164062 37.3703125 -36.15625 38.20703125 C-35.55033183 40.72930016 -35.55033183 40.72930016 -32.42578125 42.37109375 C-32.92078125 41.60796875 -33.41578125 40.84484375 -33.92578125 40.05859375 C-35.42578125 37.37109375 -35.42578125 37.37109375 -35.42578125 34.37109375 C-34.58789062 34.16226563 -33.75 33.9534375 -32.88671875 33.73828125 C-28.52854992 32.016657 -25.58306031 29.51757648 -22.05078125 26.49609375 C-20.63231187 25.31257847 -19.21167839 24.13165283 -17.7890625 22.953125 C-17.0667041 22.3545166 -16.3443457 21.7559082 -15.60009766 21.13916016 C-12.21847482 18.38936085 -8.7372669 15.78137061 -5.23828125 13.18359375 C-4.582229 12.69318604 -3.92617676 12.20277832 -3.25024414 11.69750977 C-0.03862684 9.29986927 3.18755353 6.92502826 6.43359375 4.57421875 C7.62650511 3.6942856 8.81922326 2.81409042 10.01171875 1.93359375 C11.58759766 0.79083984 11.58759766 0.79083984 13.1953125 -0.375 C15.80781156 -2.85022489 16.33119593 -4.09572832 16.57421875 -7.62890625 C17.56421875 -7.95890625 18.55421875 -8.28890625 19.57421875 -8.62890625 C23.48284358 -5.11389001 26.11004228 -1.03962687 28.88671875 3.37109375 C29.35400391 4.08265625 29.82128906 4.79421875 30.30273438 5.52734375 C30.73908203 6.21828125 31.17542969 6.90921875 31.625 7.62109375 C32.02372314 8.245 32.42244629 8.86890625 32.83325195 9.51171875 C33.57421875 11.37109375 33.57421875 11.37109375 33.38354492 13.54296875 C33.11646729 14.14625 32.84938965 14.74953125 32.57421875 15.37109375 C29.57421875 16.37109375 29.57421875 16.37109375 27.32421875 16.80859375 C24.01673716 17.48512407 20.81181485 18.4188596 17.57421875 19.37109375 C17.9609375 20.06332031 18.34765625 20.75554688 18.74609375 21.46875 C27.88351027 38.63533203 30.58702902 57.3568173 26.01171875 76.37109375 C19.82115266 95.93156298 8.45582539 110.96957912 -9.51171875 121.11328125 C-28.09264916 130.3349282 -47.60243515 132.15590467 -67.41650391 126.05566406 C-85.24890944 119.98007899 -99.82725297 107.05662312 -108.42578125 90.37109375 C-116.49185267 73.09942282 -119.3327191 51.89060644 -112.80078125 33.51953125 C-112.34703125 32.48054688 -111.89328125 31.4415625 -111.42578125 30.37109375 C-111.16796875 29.77329102 -110.91015625 29.17548828 -110.64453125 28.55957031 C-102.74420036 10.77468191 -88.82754901 -2.73752578 -70.73828125 -10.06640625 C-47.13550284 -18.98861231 -19.99416318 -15.9473773 0 0 Z M0.01171875 27.62109375 C-0.87708984 28.01683594 -1.76589844 28.41257812 -2.68164062 28.8203125 C-3.52662109 29.21347656 -4.37160156 29.60664062 -5.2421875 30.01171875 C-6.40923218 30.54587402 -6.40923218 30.54587402 -7.59985352 31.09082031 C-9.53116014 32.23066294 -9.53116014 32.23066294 -10.32714844 34.15625 C-10.46615186 37.27763388 -9.45636265 39.32041276 -8.1875 42.16796875 C-7.69701172 43.29203125 -7.20652344 44.41609375 -6.70117188 45.57421875 C-6.17716797 46.7446875 -5.65316406 47.91515625 -5.11328125 49.12109375 C3.86271549 69.35378073 3.86271549 69.35378073 2.57421875 77.37109375 C0.12598839 80.99052365 -2.86231528 84.07894508 -6.2265625 86.859375 C-7.93059111 88.30312239 -9.24518746 89.46804704 -10.42578125 91.37109375 C-10.45160758 93.73065928 -10.45160758 93.73065928 -10.11328125 96.24609375 C-9.9375 98.84765625 -9.9375 98.84765625 -10.42578125 101.37109375 C-13.66504373 104.71066126 -17.47765253 106.94943682 -21.42578125 109.37109375 C-23.00239598 110.51861427 -24.56704197 111.68296015 -26.11328125 112.87109375 C-26.75652344 113.35578125 -27.39976563 113.84046875 -28.0625 114.33984375 C-28.51238281 114.68015625 -28.96226563 115.02046875 -29.42578125 115.37109375 C-29.09578125 116.69109375 -28.76578125 118.01109375 -28.42578125 119.37109375 C-13.59070793 117.82929906 -2.41068314 108.59956387 6.921875 97.60546875 C17.42812475 83.85897375 22.24352805 67.67626681 20.57421875 50.37109375 C19.02156438 40.84768071 16.00887949 31.94961781 11.57421875 23.37109375 C7.50713059 23.37109375 3.64380262 25.93335194 0.01171875 27.62109375 Z M-28.42578125 41.37109375 C-28.42578125 42.36109375 -28.42578125 43.35109375 -28.42578125 44.37109375 C-29.41578125 44.86609375 -29.41578125 44.86609375 -30.42578125 45.37109375 C-29.64203125 45.98984375 -28.85828125 46.60859375 -28.05078125 47.24609375 C-24.35069446 50.93569871 -24.03785285 55.37250904 -23.42578125 60.37109375 C-23.19890625 61.58796875 -22.97203125 62.80484375 -22.73828125 64.05859375 C-23.67836415 68.58808406 -25.65743751 69.91281326 -29.359375 72.52734375 C-35.50304636 76.2213729 -41.94850908 79.31127806 -48.42578125 82.37109375 C-48.09578125 83.03109375 -47.76578125 83.69109375 -47.42578125 84.37109375 C-46.84570312 84.28730469 -46.265625 84.20351562 -45.66796875 84.1171875 C-44.49621094 83.96443359 -44.49621094 83.96443359 -43.30078125 83.80859375 C-42.15222656 83.65197266 -42.15222656 83.65197266 -40.98046875 83.4921875 C-38.42578125 83.37109375 -38.42578125 83.37109375 -35.53515625 83.9921875 C-31.61624073 84.46974379 -29.41372949 83.52757766 -25.80078125 81.99609375 C-22.33855767 80.55148298 -19.0610279 79.26639866 -15.42578125 78.37109375 C-12.51264438 77.17327699 -10.38831196 75.86328473 -8.42578125 73.37109375 C-6.54652803 63.85737432 -12.65019717 51.01475736 -17.46875 42.953125 C-19.19549435 40.21399471 -19.19549435 40.21399471 -21.92578125 39.37109375 C-24.68273069 39.37109375 -26.11339201 39.91514497 -28.42578125 41.37109375 Z " fill="#4F515E" transform="translate(115.42578125,35.62890625)"/>
<path d="M0 0 C0.84949219 0.78246094 1.69898437 1.56492187 2.57421875 2.37109375 C2.57421875 4.37109375 2.57421875 4.37109375 0.88671875 6.12109375 C0.12359375 6.53359375 -0.63953125 6.94609375 -1.42578125 7.37109375 C-4.93256711 6.26764054 -7.75681377 4.58256511 -10.80078125 2.55859375 C-19.24972032 -2.6018361 -29.50394297 -6.124406 -39.42578125 -6.62890625 C-40.1425 -6.67917969 -40.85921875 -6.72945312 -41.59765625 -6.78125 C-58.63857991 -7.47736616 -75.32210589 -0.94715643 -88.18359375 10.1171875 C-98.84329716 20.83260364 -104.29435807 32.7832443 -107.42578125 47.37109375 C-108.08578125 46.71109375 -108.74578125 46.05109375 -109.42578125 45.37109375 C-111.60338967 46.70216345 -111.60338967 46.70216345 -113.42578125 49.37109375 C-114.08420509 52.9423604 -114.12269001 56.49640998 -114.17578125 60.12109375 C-114.20542969 61.10464844 -114.23507813 62.08820313 -114.265625 63.1015625 C-114.33620536 65.52482151 -114.38895826 67.94712529 -114.42578125 70.37109375 C-114.75578125 70.37109375 -115.08578125 70.37109375 -115.42578125 70.37109375 C-116.2732971 41.47080333 -116.2732971 41.47080333 -111.42578125 30.37109375 C-111.16796875 29.77329102 -110.91015625 29.17548828 -110.64453125 28.55957031 C-102.74420036 10.77468191 -88.82754901 -2.73752578 -70.73828125 -10.06640625 C-47.13550284 -18.98861231 -19.99416318 -15.9473773 0 0 Z " fill="#61636E" transform="translate(115.42578125,35.62890625)"/>
<path d="M0 0 C0.99 0 1.98 0 3 0 C3.103125 0.94875 3.20625 1.8975 3.3125 2.875 C3.68539295 6.29107501 3.68539295 6.29107501 7 8 C8.65549531 8.38499891 10.3222433 8.72793135 12 9 C12 9.66 12 10.32 12 11 C9.36 11.66 6.72 12.32 4 13 C3.34 15.64 2.68 18.28 2 21 C1.34 21 0.68 21 0 21 C-0.144375 19.906875 -0.28875 18.81375 -0.4375 17.6875 C-0.87563765 15.71531062 -0.87563765 15.71531062 -2 14 C-4.88294753 12.47156347 -7.82055924 11.68691621 -11 11 C-11 10.34 -11 9.68 -11 9 C-6.545 8.505 -6.545 8.505 -2 8 C-1.34 5.36 -0.68 2.72 0 0 Z " fill="#7B7C84" transform="translate(128,0)"/>
<path d="M0 0 C3.63 0 7.26 0 11 0 C11.33 0.99 11.66 1.98 12 3 C10.68 3.33 9.36 3.66 8 4 C7.67 5.32 7.34 6.64 7 8 C6.34 8 5.68 8 5 8 C4.67 6.35 4.34 4.7 4 3 C2.68 3 1.36 3 0 3 C0 2.01 0 1.02 0 0 Z " fill="#9A9BA1" transform="translate(138,0)"/>
<path d="M0 0 C2.125 0.9375 2.125 0.9375 4 2 C3.67 2.66 3.34 3.32 3 4 C1.68 3.34 0.36 2.68 -1 2 C-0.896875 2.9075 -0.79375 3.815 -0.6875 4.75 C-1 8 -1 8 -3.125 10.25 C-6.03895814 12.02371365 -8.7223492 13.08530675 -12 14 C-7.38461538 9.25641026 -7.38461538 9.25641026 -4.75 7.5 C-2.44685426 5.52587508 -2.46162654 3.92363473 -2 1 C-1.34 0.67 -0.68 0.34 0 0 Z " fill="#85878F" transform="translate(134,27)"/>
<path d="M0 0 C0.66 0.33 1.32 0.66 2 1 C1.0919838 2.13199353 0.17316174 3.25532363 -0.75 4.375 C-1.26046875 5.00148438 -1.7709375 5.62796875 -2.296875 6.2734375 C-4.08199481 8.08312318 -5.67949644 9.00117455 -8 10 C-6.44303593 6.17836093 -3.96591316 3.81381505 -1 1 C-0.67 0.67 -0.34 0.34 0 0 Z " fill="#80818A" transform="translate(36,52)"/>
<path d="M0 0 C0.33 0.99 0.66 1.98 1 3 C1.66 3 2.32 3 3 3 C2.67 4.65 2.34 6.3 2 8 C1.01 8.33 0.02 8.66 -1 9 C-2.0326802 6.21176345 -2.04509293 5.1322726 -1.0625 2.25 C-0.711875 1.5075 -0.36125 0.765 0 0 Z " fill="#8E8F97" transform="translate(20,73)"/>
<path d="M0 0 C0.66 0.33 1.32 0.66 2 1 C2 3 2 3 0.3125 4.75 C-2 6 -2 6 -4.6875 5.3125 C-7 4 -7 4 -8 2 C-7.05125 2.04125 -6.1025 2.0825 -5.125 2.125 C-1.89755144 2.34973818 -1.89755144 2.34973818 0 0 Z " fill="#8C8D94" transform="translate(116,37)"/>
<path d="M0 0 C0.99 0 1.98 0 3 0 C3 1.98 3 3.96 3 6 C2.01 5.67 1.02 5.34 0 5 C-0.33 6.32 -0.66 7.64 -1 9 C-1.99 8.67 -2.98 8.34 -4 8 C-3.34 8 -2.68 8 -2 8 C-1.34 5.36 -0.68 2.72 0 0 Z " fill="#AFAFB5" transform="translate(128,0)"/>
<path d="M0 0 C0.66 0.33 1.32 0.66 2 1 C1.34 2.65 0.68 4.3 0 6 C-1.98 4.68 -3.96 3.36 -6 2 C-5.38125 1.855625 -4.7625 1.71125 -4.125 1.5625 C-1.96741678 1.06847775 -1.96741678 1.06847775 0 0 Z " fill="#999AA1" transform="translate(82,57)"/>
<path d="M0 0 C0.33 0 0.66 0 1 0 C0.14285714 8.57142857 0.14285714 8.57142857 -2 12 C-2.28571429 3.42857143 -2.28571429 3.42857143 0 0 Z " fill="#7B7D86" transform="translate(10,66)"/>
<path d="M0 0 C0.66 0.33 1.32 0.66 2 1 C1.6875 2.9375 1.6875 2.9375 1 5 C0.01 5.33 -0.98 5.66 -2 6 C-2.99 5.34 -3.98 4.68 -5 4 C-4.01 3.67 -3.02 3.34 -2 3 C-1.34 2.01 -0.68 1.02 0 0 Z " fill="#9C9CA2" transform="translate(147,46)"/>
<path d="" fill="#F8F9FA" transform="translate(0,0)"/>
<path d="" fill="#FAFBFC" transform="translate(0,0)"/>
<path d="" fill="#F6F7F8" transform="translate(0,0)"/>
</svg>
